<?xml version="1.0" encoding="UTF-8"?>
<svg width="13px" height="14px" viewBox="0 0 13 14" version="1.1" xmlns="http://www.w3.org/2000/svg" xmlns:xlink="http://www.w3.org/1999/xlink">
    <!-- Generator: Sketch 43.1 (39012) - http://www.bohemiancoding.com/sketch -->
    <title>calendar</title>
    <desc>Created with Sketch.</desc>
    <defs></defs>
    <g id="Page-1" stroke="none" stroke-width="1" fill="none" fill-rule="evenodd">
        <g id="calendar" fill-rule="nonzero" fill="#B4B4B4">
            <path d="M12,1 L11,1 L11,2.5 C11,2.78 10.78,3 10.5,3 L8.5,3 C8.22,3 8,2.78 8,2.5 L8,1 L5,1 L5,2.5 C5,2.78 4.78,3 4.5,3 L2.5,3 C2.22,3 2,2.78 2,2.5 L2,1 L1,1 C0.45,1 0,1.45 0,2 L0,13 C0,13.55 0.45,14 1,14 L12,14 C12.55,14 13,13.55 13,13 L13,2 C13,1.45 12.55,1 12,1 L12,1 Z M12,13 L1,13 L1,4 L12,4 L12,13 L12,13 Z M4,2 L3,2 L3,0 L4,0 L4,2 L4,2 Z M10,2 L9,2 L9,0 L10,0 L10,2 L10,2 Z M5,6 L4,6 L4,5 L5,5 L5,6 L5,6 Z M7,6 L6,6 L6,5 L7,5 L7,6 L7,6 Z M9,6 L8,6 L8,5 L9,5 L9,6 L9,6 Z M11,6 L10,6 L10,5 L11,5 L11,6 L11,6 Z M3,8 L2,8 L2,7 L3,7 L3,8 L3,8 Z M5,8 L4,8 L4,7 L5,7 L5,8 L5,8 Z M7,8 L6,8 L6,7 L7,7 L7,8 L7,8 Z M9,8 L8,8 L8,7 L9,7 L9,8 L9,8 Z M11,8 L10,8 L10,7 L11,7 L11,8 L11,8 Z M3,10 L2,10 L2,9 L3,9 L3,10 L3,10 Z M5,10 L4,10 L4,9 L5,9 L5,10 L5,10 Z M7,10 L6,10 L6,9 L7,9 L7,10 L7,10 Z M9,10 L8,10 L8,9 L9,9 L9,10 L9,10 Z M11,10 L10,10 L10,9 L11,9 L11,10 L11,10 Z M3,12 L2,12 L2,11 L3,11 L3,12 L3,12 Z M5,12 L4,12 L4,11 L5,11 L5,12 L5,12 Z M7,12 L6,12 L6,11 L7,11 L7,12 L7,12 Z M9,12 L8,12 L8,11 L9,11 L9,12 L9,12 Z" id="Shape"></path>
        </g>
    </g>
</svg>