<?xml version="1.0" encoding="UTF-8"?>
<svg width="79px" height="25px" viewBox="0 0 79 25" version="1.1" xmlns="http://www.w3.org/2000/svg" xmlns:xlink="http://www.w3.org/1999/xlink">
    <!-- Generator: Sketch 43.1 (39012) - http://www.bohemiancoding.com/sketch -->
    <title>Logo</title>
    <desc>Created with Sketch.</desc>
    <defs></defs>
    <g id="Page-1" stroke="none" stroke-width="1" fill="none" fill-rule="evenodd">
        <g id="Logo" transform="translate(0.000000, -3.000000)" fill="#1D1D1D">
            <g transform="translate(0.000000, 3.000000)">
                <path d="M2.235,1.0725 C2.34500055,1.0725 2.43749963,1.07749995 2.5125,1.0875 C2.58750038,1.09750005 2.6549997,1.11624986 2.715,1.14375 C2.7750003,1.17125014 2.83249973,1.20999975 2.8875,1.26 C2.94250028,1.31000025 3.00499965,1.37749958 3.075,1.4625 L8.265,8.025 C8.2449999,7.81499895 8.23000005,7.61125099 8.22,7.41375 C8.20999995,7.21624901 8.205,7.03000088 8.205,6.855 L8.205,1.0725 L10.44,1.0725 L10.44,12 L9.12,12 C8.92499903,12 8.76000068,11.9700003 8.625,11.91 C8.48999933,11.8499997 8.36000063,11.7400008 8.235,11.58 L3.0825,5.07 C3.09750008,5.26000095 3.10999995,5.44624909 3.12,5.62875 C3.13000005,5.81125091 3.135,5.9824992 3.135,6.1425 L3.135,12 L0.9,12 L0.9,1.0725 L2.235,1.0725 Z M22.41,12 L20.445,12 C20.2249989,12 20.0437507,11.9487505 19.90125,11.84625 C19.7587493,11.7437495 19.6600003,11.6125008 19.605,11.4525 L18.96,9.5475 L14.805,9.5475 L14.16,11.4525 C14.1099998,11.5925007 14.0125007,11.7187494 13.8675,11.83125 C13.7224993,11.9437506 13.5450011,12 13.335,12 L11.355,12 L15.585,1.0725 L18.18,1.0725 L22.41,12 Z M15.39,7.8225 L18.375,7.8225 L17.37,4.83 C17.3049997,4.63999905 17.2287504,4.41625129 17.14125,4.15875 C17.0537496,3.90124871 16.9675004,3.6225015 16.8825,3.3225 C16.8024996,3.62750153 16.7200004,3.9099987 16.635,4.17 C16.5499996,4.4300013 16.4700004,4.65499905 16.395,4.845 L15.39,7.8225 Z M30.03,1.0725 L30.03,3.0825 L26.955,3.0825 L26.955,12 L24.42,12 L24.42,3.0825 L21.345,3.0825 L21.345,1.0725 L30.03,1.0725 Z M33.855,12 L31.305,12 L31.305,1.0725 L33.855,1.0725 L33.855,12 Z M46.665,6.5325 C46.665,7.32250395 46.5287514,8.0574966 46.25625,8.7375 C45.9837486,9.4175034 45.6000025,10.0087475 45.105,10.51125 C44.6099975,11.0137525 44.0137535,11.4074986 43.31625,11.6925 C42.6187465,11.9775014 41.8450043,12.12 40.995,12.12 C40.1449958,12.12 39.3700035,11.9775014 38.67,11.6925 C37.9699965,11.4074986 37.3712525,11.0137525 36.87375,10.51125 C36.3762475,10.0087475 35.9912514,9.4175034 35.71875,8.7375 C35.4462486,8.0574966 35.31,7.32250395 35.31,6.5325 C35.31,5.74249605 35.4462486,5.0075034 35.71875,4.3275 C35.9912514,3.6474966 36.3762475,3.0575025 36.87375,2.5575 C37.3712525,2.0574975 37.9699965,1.66500143 38.67,1.38 C39.3700035,1.09499858 40.1449958,0.9525 40.995,0.9525 C41.8450043,0.9525 42.6187465,1.09624856 43.31625,1.38375 C44.0137535,1.67125144 44.6099975,2.0649975 45.105,2.565 C45.6000025,3.0650025 45.9837486,3.6549966 46.25625,4.335 C46.5287514,5.0150034 46.665,5.74749608 46.665,6.5325 Z M44.07,6.5325 C44.07,5.9924973 44.0000007,5.50625216 43.86,5.07375 C43.7199993,4.64124784 43.5187513,4.2750015 43.25625,3.975 C42.9937487,3.6749985 42.6725019,3.4450008 42.2925,3.285 C41.9124981,3.1249992 41.4800024,3.045 40.995,3.045 C40.5049976,3.045 40.0687519,3.1249992 39.68625,3.285 C39.3037481,3.4450008 38.9812513,3.6749985 38.71875,3.975 C38.4562487,4.2750015 38.2550007,4.64124784 38.115,5.07375 C37.9749993,5.50625216 37.905,5.9924973 37.905,6.5325 C37.905,7.07750273 37.9749993,7.56624784 38.115,7.99875 C38.2550007,8.43125216 38.4562487,8.7974985 38.71875,9.0975 C38.9812513,9.3975015 39.3037481,9.62624921 39.68625,9.78375 C40.0687519,9.94125079 40.5049976,10.02 40.995,10.02 C41.4800024,10.02 41.9124981,9.94125079 42.2925,9.78375 C42.6725019,9.62624921 42.9937487,9.3975015 43.25625,9.0975 C43.5187513,8.7974985 43.7199993,8.43125216 43.86,7.99875 C44.0000007,7.56624784 44.07,7.07750273 44.07,6.5325 Z M49.215,1.0725 C49.3250006,1.0725 49.4174996,1.07749995 49.4925,1.0875 C49.5675004,1.09750005 49.6349997,1.11624986 49.695,1.14375 C49.7550003,1.17125014 49.8124997,1.20999975 49.8675,1.26 C49.9225003,1.31000025 49.9849997,1.37749958 50.055,1.4625 L55.245,8.025 C55.2249999,7.81499895 55.2100001,7.61125099 55.2,7.41375 C55.19,7.21624901 55.185,7.03000088 55.185,6.855 L55.185,1.0725 L57.42,1.0725 L57.42,12 L56.1,12 C55.904999,12 55.7400007,11.9700003 55.605,11.91 C55.4699993,11.8499997 55.3400006,11.7400008 55.215,11.58 L50.0625,5.07 C50.0775001,5.26000095 50.09,5.44624909 50.1,5.62875 C50.1100001,5.81125091 50.115,5.9824992 50.115,6.1425 L50.115,12 L47.88,12 L47.88,1.0725 L49.215,1.0725 Z" id="NATION"></path>
                <path d="M33.8750008,24 L31.3250008,24 L31.3250008,13.0725 L33.8750008,13.0725 L33.8750008,24 Z M41.3300008,21.975 L45.3800008,21.975 L45.3800008,24 L38.7950008,24 L38.7950008,13.0725 L41.3300008,13.0725 L41.3300008,21.975 Z M51.1250008,21.9975 C51.4650025,21.9975 51.7687494,21.9412506 52.0362508,21.82875 C52.3037521,21.7162494 52.5299998,21.5550011 52.7150008,21.345 C52.9000017,21.1349989 53.0412503,20.8787515 53.1387508,20.57625 C53.2362513,20.2737485 53.2850008,19.9300019 53.2850008,19.545 L53.2850008,13.0725 L55.8200008,13.0725 L55.8200008,19.545 C55.8200008,20.2150033 55.7112519,20.8299972 55.4937508,21.39 C55.2762497,21.9500028 54.9650028,22.432498 54.5600008,22.8375 C54.1549987,23.242502 53.6625037,23.5574989 53.0825008,23.7825 C52.5024979,24.0075011 51.8500044,24.12 51.1250008,24.12 C50.3949971,24.12 49.7400037,24.0075011 49.1600008,23.7825 C48.5799979,23.5574989 48.0875028,23.242502 47.6825008,22.8375 C47.2774987,22.432498 46.9675018,21.9500028 46.7525008,21.39 C46.5374997,20.8299972 46.4300008,20.2150033 46.4300008,19.545 L46.4300008,13.0725 L48.9650008,13.0725 L48.9650008,19.5375 C48.9650008,19.9225019 49.0137503,20.2662485 49.1112508,20.56875 C49.2087513,20.8712515 49.3499998,21.1287489 49.5350008,21.34125 C49.7200017,21.5537511 49.9462494,21.7162494 50.2137508,21.82875 C50.4812521,21.9412506 50.7849991,21.9975 51.1250008,21.9975 Z M58.8050008,13.0725 C58.9150013,13.0725 59.0075004,13.0774999 59.0825008,13.0875 C59.1575011,13.0975001 59.2250005,13.1162499 59.2850008,13.14375 C59.3450011,13.1712501 59.4025005,13.2099998 59.4575008,13.26 C59.512501,13.3100003 59.5750004,13.3774996 59.6450008,13.4625 L64.8350008,20.025 C64.8150007,19.8149989 64.8000008,19.611251 64.7900008,19.41375 C64.7800007,19.216249 64.7750008,19.0300009 64.7750008,18.855 L64.7750008,13.0725 L67.0100008,13.0725 L67.0100008,24 L65.6900008,24 C65.4949998,24 65.3300014,23.9700003 65.1950008,23.91 C65.0600001,23.8499997 64.9300014,23.7400008 64.8050008,23.58 L59.6525008,17.07 C59.6675008,17.2600009 59.6800007,17.4462491 59.6900008,17.62875 C59.7000008,17.8112509 59.7050008,17.9824992 59.7050008,18.1425 L59.7050008,24 L57.4700008,24 L57.4700008,13.0725 L58.8050008,13.0725 Z M78.7250008,18.5325 C78.7250008,19.3225039 78.5887521,20.0512467 78.3162508,20.71875 C78.0437494,21.3862533 77.6600032,21.9637476 77.1650008,22.45125 C76.6699983,22.9387524 76.0737543,23.3187486 75.3762508,23.59125 C74.6787473,23.8637514 73.905005,24 73.0550008,24 L68.8100008,24 L68.8100008,13.0725 L73.0550008,13.0725 C73.905005,13.0725 74.6787473,13.2099986 75.3762508,13.485 C76.0737543,13.7600014 76.6699983,14.1399976 77.1650008,14.625 C77.6600032,15.1100024 78.0437494,15.6862467 78.3162508,16.35375 C78.5887521,17.0212533 78.7250008,17.7474961 78.7250008,18.5325 Z M76.1300008,18.5325 C76.1300008,17.9924973 76.0600015,17.5050022 75.9200008,17.07 C75.7800001,16.6349978 75.5787521,16.2662515 75.3162508,15.96375 C75.0537495,15.6612485 74.7325027,15.4287508 74.3525008,15.26625 C73.9724989,15.1037492 73.5400032,15.0225 73.0550008,15.0225 L71.3600008,15.0225 L71.3600008,22.05 L73.0550008,22.05 C73.5400032,22.05 73.9724989,21.9687508 74.3525008,21.80625 C74.7325027,21.6437492 75.0537495,21.4112515 75.3162508,21.10875 C75.5787521,20.8062485 75.7800001,20.4375022 75.9200008,20.0025 C76.0600015,19.5674978 76.1300008,19.0775027 76.1300008,18.5325 Z" id="I-LUND"></path>
            </g>
        </g>
    </g>
</svg>